<?xml version="1.0" encoding="UTF-8"?>
<svg width="63px" height="56px" viewBox="0 0 63 56" version="1.1" xmlns="http://www.w3.org/2000/svg" xmlns:xlink="http://www.w3.org/1999/xlink">
    <title>medal-light</title>
    <g id="Dashboard-new" stroke="none" stroke-width="1" fill="none" fill-rule="evenodd">
        <g id="Euronics---nuova-versione" transform="translate(-1536.000000, -356.000000)" fill="#00B2FF" fill-rule="nonzero">
            <g id="Group-9" transform="translate(324.000000, 203.000000)">
                <g id="Group-19" transform="translate(1077.000000, 106.000000)">
                    <g id="medal-light" transform="translate(135.000000, 47.000000)">
                        <path d="M36.3529809,30.1229688 L34.1928193,25.7425 C33.1603167,23.6851563 29.827652,23.6796875 28.8028057,25.75125 L26.6459253,30.1229688 L21.8268507,30.8273438 C20.6849728,30.9914063 19.755283,31.775625 19.3965321,32.8726563 C19.0410625,33.9685938 19.3320007,35.1509375 20.1588778,35.95375 L23.6490428,39.3542188 L22.8221657,44.1579688 C22.3945084,46.6451563 25.037015,48.4782813 27.1829579,47.3265625 L31.5,45.0592188 L35.8137608,47.3254688 C37.9301724,48.4334375 40.6120541,46.6823438 40.178928,44.1590625 L39.352051,39.3553125 L42.842216,35.9548438 C43.6690931,35.1520313 43.9600313,33.9685938 43.6045617,32.87375 C43.2458108,31.7767188 42.3161209,30.9935938 41.1775243,30.8284375 L36.3529809,30.1229688 L36.3529809,30.1229688 Z M35.591729,38.1346875 L36.5586065,43.7620312 L31.5,41.1042187 L26.4315498,43.82875 L27.4093647,38.1346875 L23.3176357,34.1457812 L28.9712436,33.3221875 L31.5,28.1946875 L34.0287564,33.3221875 L39.6823643,34.1457812 L35.591729,38.1346875 L35.591729,38.1346875 Z M61.2467935,0 L43.9819064,0 C42.7525283,0 41.6128379,0.6453125 40.9806488,1.6996875 L31.5,17.5 L22.0193512,1.6996875 C21.3869654,0.645250446 20.2476281,0 19.0180936,0 L1.75320654,0 C0.336796729,0 -0.492267854,1.59359375 0.319296685,2.7540625 L16.0824613,25.2721875 C13.6871428,28.48125 12.2499517,32.4460937 12.2499517,36.75 C12.2499517,47.3648437 20.8851296,56 31.5,56 C42.1148704,56 50.7500483,47.3648437 50.7500483,36.75 C50.7500483,32.4460937 49.3128572,28.48125 46.9175387,25.2721875 L62.6807033,2.7540625 C63.4922679,1.59359375 62.6632033,0 61.2467935,0 Z M5.11430873,3.5 L19.0180936,3.5 L27.6510841,17.8882812 C24.1565441,18.6003125 21.0174737,20.2770313 18.4876236,22.605625 L5.11430873,3.5 Z M47.2500396,36.75 C47.2500396,45.4485937 40.1986156,52.5 31.5,52.5 C22.8013844,52.5 15.7499604,45.4485937 15.7499604,36.75 C15.7499604,28.0514062 22.8013844,21 31.5,21 C40.1986156,21 47.2500396,28.0514062 47.2500396,36.75 Z M44.5123764,22.605625 C41.9825263,20.2770313 38.8434559,18.6003125 35.3489159,17.8882812 L43.9819064,3.5 L57.8856913,3.5 L44.5123764,22.605625 Z" id="Shape"></path>
                    </g>
                </g>
            </g>
        </g>
    </g>
</svg>