<?xml version="1.0" encoding="UTF-8"?>
<svg width="33px" height="29px" viewBox="0 0 33 29" version="1.1" xmlns="http://www.w3.org/2000/svg" xmlns:xlink="http://www.w3.org/1999/xlink">
    <title>books-light</title>
    <g id="Dashboard-new" stroke="none" stroke-width="1" fill="none" fill-rule="evenodd">
        <g id="Euronics---menu-sx-aperto" transform="translate(-48.000000, -225.000000)" fill="#F1C400" fill-rule="nonzero">
            <g id="books-light" transform="translate(48.000000, 225.000000)">
                <path d="M32.9615632,25.8524805 L22.8593394,0.454257812 C22.7607979,0.175585938 22.4932462,0 22.20908,0 C22.0366323,0 21.9243408,0.0583398438 21.5507998,0.187480469 C21.1806962,0.315488281 20.9881965,0.654199219 21.1915816,1.22853516 C20.2485622,1.77738281 17.8027848,2.59300781 16.8660675,2.72498047 C16.7898697,2.51087891 16.7532031,2.35001953 16.4994014,2.2021875 L16.4994014,1.8125 C16.4994014,0.811660156 15.6784131,0 14.6660709,0 L9.16607947,0 C8.82462167,0 8.52326797,0.117246094 8.24941423,0.277539063 C7.97613341,0.117246094 7.67477971,0 7.33332191,0 L1.83333048,0 C0.820988304,0 0,0.811660156 0,1.8125 L0,27.1875 C0,28.1883398 0.820988304,29 1.83333048,29 L7.33332191,29 C7.67477971,29 7.97613341,28.8827539 8.24998715,28.7224609 C8.52384089,28.8833203 8.82519459,29 9.16665239,29 L14.6666438,29 C15.678986,29 16.4999743,28.1883398 16.4999743,27.1875 L16.4999743,6.7334375 L25.1756379,28.5457422 C25.2747523,28.8244141 25.542304,29 25.8258973,29 C25.997772,29 26.1100635,28.9416602 26.4841775,28.8125195 C26.8531353,28.6850781 27.0473537,28.3463672 26.8433957,27.7714648 C27.786415,27.2226172 30.2321925,26.4069922 31.1689098,26.2750195 C31.378024,26.864082 31.7492735,26.9915234 32.1073458,26.8674805 L32.5398972,26.7179492 C32.8968238,26.5939062 33.0864589,26.2042187 32.9615632,25.8524805 L32.9615632,25.8524805 Z M7.33333048,27.1875 L1.83333048,27.1875 L1.83333048,23.5625 L7.33333048,23.5625 L7.33333048,27.1875 Z M7.33333048,21.75 L1.83333048,21.75 L1.83333048,7.25 L7.33333048,7.25 L7.33333048,21.75 Z M7.33333048,5.4375 L1.83333048,5.4375 L1.83333048,1.8125 L7.33333048,1.8125 L7.33333048,5.4375 Z M14.6666524,27.1875 L9.16665239,27.1875 L9.16665239,23.5625 L14.6666524,23.5625 L14.6666524,27.1875 Z M14.6666524,21.75 L9.16665239,21.75 L9.16665239,7.25 L14.6666524,7.25 L14.6666524,21.75 Z M14.6666524,5.4375 L9.16665239,5.4375 L9.16665239,1.8125 L14.6666524,1.8125 L14.6666524,5.4375 Z M26.3054278,26.2551953 L17.4046083,4.24125 C18.8495019,3.97277344 21.0718422,3.08974609 21.7301224,2.74480469 L30.6309419,24.7581836 C29.1854754,25.0272266 26.963708,25.9096875 26.3054278,26.2551953 L26.3054278,26.2551953 Z" id="Shape"></path>
            </g>
        </g>
    </g>
</svg>