<?xml version="1.0" encoding="UTF-8"?>
<svg width="60px" height="60px" viewBox="0 0 60 60" version="1.1" xmlns="http://www.w3.org/2000/svg" xmlns:xlink="http://www.w3.org/1999/xlink">
    <title>bullseye-arrow-light</title>
    <g id="Dashboard-new" stroke="none" stroke-width="1" fill="none" fill-rule="evenodd">
        <g id="Euronics---nuova-versione" transform="translate(-821.000000, -354.000000)" fill="#00B2FF" fill-rule="nonzero">
            <g id="Group-9" transform="translate(324.000000, 203.000000)">
                <g id="Group-17" transform="translate(361.000000, 106.000000)">
                    <g id="bullseye-arrow-light" transform="translate(136.000000, 45.000000)">
                        <path d="M36.9012097,10.9766142 L39.7995968,17.4629044 L28.6306452,28.6318557 C27.8745968,29.3879041 27.8745968,30.6133073 28.6306452,31.3681459 C29.0080645,31.7455653 29.5040323,31.9354846 29.9987903,31.9354846 C30.4935484,31.9354846 30.9895161,31.746775 31.3669355,31.3681459 L42.5358871,20.1991946 L49.0221774,23.0975817 C49.9157149,23.3960852 50.9012171,23.1637615 51.5673387,22.4975817 L59.2693548,14.7955657 C60.5758065,13.4891142 60.0508065,11.2633078 58.2967742,10.6778239 L51.5637097,8.43387237 L49.3197581,1.70201772 C48.9592742,0.614517746 47.9685484,1.63400493e-06 46.9548387,1.63400493e-06 C46.3330645,1.63400493e-06 45.7016129,0.232259692 45.2044355,0.729437098 L37.5024194,8.43145302 C36.8367121,9.09781555 36.6040413,10.0828044 36.9012097,10.9766142 L36.9012097,10.9766142 Z M46.3584677,5.05040472 L47.8947581,9.65806589 L48.5068548,11.4943562 L50.3431452,12.1064529 L54.9508065,13.6427432 L49.5157258,19.0778237 L43.5774194,16.4250012 L40.9245968,10.4866949 L46.3584677,5.05040472 Z M58.6004032,20.9395172 L55.4334677,24.1064526 C55.8725806,26.0044364 56.1290323,27.9713718 56.1290323,30.0000008 C56.1290323,44.4072585 44.4072581,56.1290324 30,56.1290324 C15.5927419,56.1290324 3.87096774,44.4072585 3.87096774,30.0000008 C3.87096774,15.5927431 15.5927419,3.87096927 30,3.87096927 C32.0298387,3.87096927 33.9967742,4.1262112 35.8935484,4.56653377 L39.0604839,1.39959837 C36.1299331,0.471333396 33.0740532,-0.00071640868 30,8.16071974e-07 C13.4310484,8.16071974e-07 0,13.4310497 0,30.0000008 C0,46.568952 13.4310484,60.0000008 30,60.0000008 C46.5689516,60.0000008 60,46.568952 60,30.0000008 C60,26.8415332 59.5052419,23.7991945 58.6004032,20.9395172 Z M33.2298387,12.1995981 C33.0413187,11.6351847 32.9322091,11.0472956 32.9056452,10.4528239 C31.95,10.3125014 30.9955645,10.1612917 30,10.1612917 C19.0342742,10.1612917 10.1612903,19.035485 10.1612903,30.0000008 C10.1612903,40.9657263 19.0354839,49.83871 30,49.83871 C40.9657258,49.83871 49.8387097,40.9645166 49.8387097,30.0000008 C49.8387097,28.9899202 49.6875,28.0221783 49.5423387,27.0532267 C48.9508065,27.0278235 48.3616935,26.9576622 47.7991935,26.7701622 C47.5427419,26.6842751 47.9225806,26.8451622 45.296371,25.6729848 C45.6895161,27.0580654 45.9677419,28.4903234 45.9677419,30.0000008 C45.9677419,38.8052425 38.8052419,45.9677423 30,45.9677423 C21.1947581,45.9677423 14.0322581,38.8052425 14.0322581,30.0000008 C14.0322581,21.1947591 21.1947581,14.0322593 30,14.0322593 C31.5096774,14.0322593 32.9419355,14.3104851 34.3270161,14.7036303 C33.1548387,12.0786303 33.3157258,12.458469 33.2298387,12.1995981 Z M30,20.3225817 C24.6641129,20.3225817 20.3225806,24.6641139 20.3225806,30.0000008 C20.3225806,35.3358878 24.6641129,39.6774199 30,39.6774199 C35.3358871,39.6774199 39.6774194,35.3358878 39.6774194,30.0000008 C39.6774194,29.5439524 39.603629,29.1072589 39.5431452,28.668146 L34.1056452,34.1056459 L34.1044355,34.1044362 C33.0520161,35.1556458 31.6004032,35.8064523 30,35.8064523 C26.7979839,35.8064523 24.1935484,33.2020169 24.1935484,30.0000008 C24.1935484,28.3995976 24.8443548,26.9479848 25.8955645,25.8955654 L25.8943548,25.8943558 L31.3318548,20.4568559 C30.8927419,20.396372 30.4560484,20.3225817 30,20.3225817 Z" id="Shape"></path>
                    </g>
                </g>
            </g>
        </g>
    </g>
</svg>