<?xml version="1.0" encoding="UTF-8"?>
<svg width="33px" height="26px" viewBox="0 0 33 26" version="1.1" xmlns="http://www.w3.org/2000/svg" xmlns:xlink="http://www.w3.org/1999/xlink">
    <title>Shape</title>
    <g id="Dashboard-new" stroke="none" stroke-width="1" fill="none" fill-rule="evenodd">
        <g id="Euronics---menu-sx-aperto" transform="translate(-47.000000, -167.000000)" fill="#F1C400" fill-rule="nonzero">
            <g id="tachometer-alt-fast-light" transform="translate(47.000000, 167.000000)">
                <path d="M6.875,16.7142857 C6.875,17.4838393 6.2596875,18.1071429 5.5,18.1071429 C4.7403125,18.1071429 4.125,17.4838393 4.125,16.7142857 C4.125,15.9447321 4.7403125,15.3214286 5.5,15.3214286 C6.2596875,15.3214286 6.875,15.9447321 6.875,16.7142857 Z M16.5,6.96428571 C17.2596875,6.96428571 17.875,6.34098214 17.875,5.57142857 C17.875,4.801875 17.2596875,4.17857143 16.5,4.17857143 C15.7403125,4.17857143 15.125,4.801875 15.125,5.57142857 C15.125,6.34098214 15.7403125,6.96428571 16.5,6.96428571 Z M8.70833333,7.42857143 C7.94864583,7.42857143 7.33333333,8.051875 7.33333333,8.82142857 C7.33333333,9.59098214 7.94864583,10.2142857 8.70833333,10.2142857 C9.46802083,10.2142857 10.0833333,9.59098214 10.0833333,8.82142857 C10.0833333,8.051875 9.46802083,7.42857143 8.70833333,7.42857143 Z M24.8680208,8.09946429 C25.2621875,8.42214286 25.3229167,9.00714286 25.004375,9.40526786 L19.4390625,16.3695536 C19.8905208,16.9870536 20.1666667,17.7438393 20.1666667,18.5714286 C20.1666667,20.6229911 18.5252604,22.2857143 16.5,22.2857143 C14.4747396,22.2857143 12.8333333,20.6229911 12.8333333,18.5714286 C12.8333333,16.5198661 14.4747396,14.8571429 16.5,14.8571429 C17.0425521,14.8571429 17.5530208,14.9836607 18.0165104,15.1983929 L23.5789583,8.23758929 C23.8975,7.83830357 24.4727083,7.77794643 24.8680208,8.09946429 L24.8680208,8.09946429 Z M18.3333333,18.5714286 C18.3333333,17.5459375 17.5123437,16.7142857 16.5,16.7142857 C15.4876562,16.7142857 14.6666667,17.5459375 14.6666667,18.5714286 C14.6666667,19.5969196 15.4876562,20.4285714 16.5,20.4285714 C17.5123437,20.4285714 18.3333333,19.5969196 18.3333333,18.5714286 Z M27.5,15.3214286 C26.7403125,15.3214286 26.125,15.9447321 26.125,16.7142857 C26.125,17.4838393 26.7403125,18.1071429 27.5,18.1071429 C28.2596875,18.1071429 28.875,17.4838393 28.875,16.7142857 C28.875,15.9447321 28.2596875,15.3214286 27.5,15.3214286 Z M33,16.7142857 C33,19.7785714 32.1835938,22.6490179 30.7621875,25.1178571 C30.4407813,25.6761607 29.8283333,26 29.1901042,26 L3.80989583,26 C3.17166667,26 2.55921875,25.6761607 2.2378125,25.1178571 C0.81640625,22.6490179 0,19.7785714 0,16.7142857 C0,7.483125 7.3871875,0 16.5,0 C25.6128125,0 33,7.483125 33,16.7142857 Z M31.1666667,16.7142857 C31.1666667,8.52196429 24.5872917,1.85714286 16.5,1.85714286 C8.41270833,1.85714286 1.83333333,8.52196429 1.83333333,16.7142857 C1.83333333,19.3409821 2.52083333,21.9229911 3.82135417,24.1823214 L29.1901042,24.1428571 C30.4791667,21.9229911 31.1666667,19.3409821 31.1666667,16.7142857 Z" id="Shape"></path>
            </g>
        </g>
    </g>
</svg>