<?xml version="1.0" encoding="UTF-8"?>
<svg width="36px" height="22px" viewBox="0 0 36 22" version="1.1" xmlns="http://www.w3.org/2000/svg" xmlns:xlink="http://www.w3.org/1999/xlink">
    <title>graduation-cap-solid</title>
    <g id="Dashboard-new" stroke="none" stroke-width="1" fill="none" fill-rule="evenodd">
        <g id="Euronics---nuova-versione" transform="translate(-1380.000000, -43.000000)" fill="#00B2FF" fill-rule="nonzero">
            <g id="graduation-cap-solid" transform="translate(1380.000000, 43.000000)">
                <path d="M35.0064805,5.11052662 L19.3160442,0.200662756 C18.4610409,-0.0668875854 17.5385373,-0.0668875854 16.6840964,0.200662756 L0.993097629,5.11052662 C-0.331032543,5.52474268 -0.331032543,7.30822065 0.993097629,7.7224367 L3.72854581,8.57836863 C3.12835597,9.33404079 2.75935453,10.2558577 2.72279189,11.2653303 C2.18110227,11.5815782 1.79972578,12.1521995 1.79972578,12.833393 C1.79972578,13.4509932 2.11922703,13.9706252 2.57935383,14.3029147 L1.14328572,20.8845385 C1.01841023,21.4568785 1.4459119,22 2.02135165,22 L5.17755147,22 C5.75355372,22 6.18105539,21.4568785 6.05617991,20.8845385 L4.6201118,14.3029147 C5.08023859,13.9706252 5.39973984,13.4509932 5.39973984,12.833393 C5.39973984,12.1705327 5.03580092,11.615953 4.5188614,11.293976 C4.56161157,10.4334607 4.99361326,9.67263234 5.68267845,9.19023965 L16.6835339,12.6328735 C17.1931609,12.7921433 18.1707897,12.9909441 19.3154817,12.6328735 L35.0064805,7.72300962 C36.3311732,7.30822065 36.3311732,5.52531559 35.0064805,5.11052662 Z M19.8442338,14.3854142 C18.239415,14.8872859 16.8719722,14.609996 16.1547819,14.3854142 L7.99737499,11.833087 L7.19974687,18.3333572 C7.19974687,20.3586044 12.0350158,22 17.9997891,22 C23.9645624,22 28.7998312,20.3586044 28.7998312,18.3333572 L28.0022031,11.8325141 L19.8442338,14.3854142 Z" id="Shape"></path>
            </g>
        </g>
    </g>
</svg>