<?xml version="1.0" encoding="UTF-8"?>
<svg width="33px" height="26px" viewBox="0 0 33 26" version="1.1" xmlns="http://www.w3.org/2000/svg" xmlns:xlink="http://www.w3.org/1999/xlink">
    <title>sign-out-light</title>
    <g id="Dashboard-new" stroke="none" stroke-width="1" fill="none" fill-rule="evenodd">
        <g id="Euronics---menu-sx-aperto" transform="translate(-47.000000, -342.000000)" fill="#F1C400" fill-rule="nonzero">
            <g id="sign-out-light" transform="translate(63.500000, 355.000000) scale(-1, 1) translate(-63.500000, -355.000000) translate(47.000000, 342.500000)">
                <path d="M3.09299487,0 L11.5987308,0 C12.0240176,0 12.3719795,0.3515625 12.3719795,0.78125 L12.3719795,1.30208333 C12.3719795,1.73177083 12.0240176,2.08333333 11.5987308,2.08333333 L3.09299487,2.08333333 C2.52594581,2.08333333 2.06199658,2.55208333 2.06199658,3.125 L2.06199658,21.875 C2.06199658,22.4479167 2.52594581,22.9166667 3.09299487,22.9166667 L11.5987308,22.9166667 C12.0240176,22.9166667 12.3719795,23.2682292 12.3719795,23.6979167 L12.3719795,24.21875 C12.3719795,24.6484375 12.0240176,25 11.5987308,25 L3.09299487,25 C1.38540395,25 0,23.6002604 0,21.875 L0,3.125 C0,1.39973958 1.38540395,0 3.09299487,0 Z M21.0710276,1.26953125 L20.6135221,1.73177083 C20.3106663,2.03776042 20.3106663,2.53255208 20.6135221,2.83854167 L29.119258,11.3932292 L11.0832316,11.3932292 C10.6579448,11.3932292 10.3099829,11.7447917 10.3099829,12.1744792 L10.3099829,12.8255208 C10.3099829,13.2552083 10.6579448,13.6067708 11.0832316,13.6067708 L29.119258,13.6067708 L20.6199658,22.1614583 C20.3171101,22.4674479 20.3171101,22.9622396 20.6199658,23.2682292 L21.0774713,23.7304688 C21.3803271,24.0364583 21.8700513,24.0364583 22.172907,23.7304688 L32.7728582,13.0533854 C33.0757139,12.7473958 33.0757139,12.2526042 32.7728582,11.9466146 L22.1664633,1.26953125 C21.8636075,0.963541667 21.3738833,0.963541667 21.0710276,1.26953125 Z" id="Shape"></path>
            </g>
        </g>
    </g>
</svg>