<?xml version="1.0" encoding="UTF-8"?>
<svg width="34px" height="25px" viewBox="0 0 34 25" version="1.1" xmlns="http://www.w3.org/2000/svg" xmlns:xlink="http://www.w3.org/1999/xlink">
    <title>users-light</title>
    <g id="Dashboard-new" stroke="none" stroke-width="1" fill="none" fill-rule="evenodd">
        <g id="Euronics---menu-sx-aperto" transform="translate(-47.000000, -286.000000)" fill="#F1C400" fill-rule="nonzero">
            <g id="users-light" transform="translate(47.000000, 286.500000)">
                <path d="M28.9,10.2857143 C31.248125,10.2857143 33.15,8.36785714 33.15,6 C33.15,3.63214286 31.248125,1.71428571 28.9,1.71428571 C26.551875,1.71428571 24.65,3.63214286 24.65,6 C24.65,8.36785714 26.551875,10.2857143 28.9,10.2857143 Z M28.9,3.42857143 C30.3078125,3.42857143 31.45,4.58035714 31.45,6 C31.45,7.41964286 30.3078125,8.57142857 28.9,8.57142857 C27.4921875,8.57142857 26.35,7.41964286 26.35,6 C26.35,4.58035714 27.4921875,3.42857143 28.9,3.42857143 Z M17,12 C20.2884375,12 22.95,9.31607143 22.95,6 C22.95,2.68392857 20.2884375,0 17,0 C13.7115625,0 11.05,2.68392857 11.05,6 C11.05,9.31607143 13.7115625,12 17,12 Z M17,1.71428571 C19.3428125,1.71428571 21.25,3.6375 21.25,6 C21.25,8.3625 19.3428125,10.2857143 17,10.2857143 C14.6571875,10.2857143 12.75,8.3625 12.75,6 C12.75,3.6375 14.6571875,1.71428571 17,1.71428571 Z M29.9625,12 L27.8375,12 C27.03,12 26.2809375,12.2571429 25.6540625,12.6910714 C26.1534375,13.0339286 26.605,13.4357143 27.0034375,13.8910714 C27.26375,13.7785714 27.5453125,13.7142857 27.8375,13.7142857 L29.9625,13.7142857 C31.248125,13.7142857 32.3,14.8660714 32.3,16.2857143 C32.3,16.7571429 32.6825,17.1428571 33.15,17.1428571 C33.6175,17.1428571 34,16.7571429 34,16.2857143 C34,13.9232143 32.1884375,12 29.9625,12 L29.9625,12 Z M5.1,10.2857143 C7.448125,10.2857143 9.35,8.36785714 9.35,6 C9.35,3.63214286 7.448125,1.71428571 5.1,1.71428571 C2.751875,1.71428571 0.85,3.63214286 0.85,6 C0.85,8.36785714 2.751875,10.2857143 5.1,10.2857143 Z M5.1,3.42857143 C6.5078125,3.42857143 7.65,4.58035714 7.65,6 C7.65,7.41964286 6.5078125,8.57142857 5.1,8.57142857 C3.6921875,8.57142857 2.55,7.41964286 2.55,6 C2.55,4.58035714 3.6921875,3.42857143 5.1,3.42857143 Z M21.2553125,13.0714286 C19.4809375,13.0714286 19.04,13.7142857 17,13.7142857 C14.96,13.7142857 14.5190625,13.0714286 12.7446875,13.0714286 C10.81625,13.0714286 8.9409375,13.9392857 7.84125,15.5839286 C7.1825,16.5696429 6.8,17.7535714 6.8,19.0285714 L6.8,21.4285714 C6.8,22.8482143 7.9421875,24 9.35,24 L24.65,24 C26.0578125,24 27.2,22.8482143 27.2,21.4285714 L27.2,19.0285714 C27.2,17.7535714 26.8175,16.5696429 26.15875,15.5839286 C25.0590625,13.9392857 23.18375,13.0714286 21.2553125,13.0714286 L21.2553125,13.0714286 Z M25.5,21.4285714 C25.5,21.9 25.1175,22.2857143 24.65,22.2857143 L9.35,22.2857143 C8.8825,22.2857143 8.5,21.9 8.5,21.4285714 L8.5,19.0285714 C8.5,18.1392857 8.7603125,17.2767857 9.2490625,16.5428571 C9.9821875,15.4446429 11.2890625,14.7857143 12.739375,14.7857143 C14.195,14.7857143 14.715625,15.4285714 17,15.4285714 C19.284375,15.4285714 19.805,14.7857143 21.2553125,14.7857143 C22.705625,14.7857143 24.0125,15.4446429 24.745625,16.5428571 C25.234375,17.2767857 25.4946875,18.1392857 25.4946875,19.0285714 L25.4946875,21.4285714 L25.5,21.4285714 Z M8.3459375,12.6910714 C7.71375,12.2571429 6.9646875,12 6.1625,12 L4.0375,12 C1.8115625,12 0,13.9232143 0,16.2857143 C0,16.7571429 0.3825,17.1428571 0.85,17.1428571 C1.3175,17.1428571 1.7,16.7571429 1.7,16.2857143 C1.7,14.8660714 2.751875,13.7142857 4.0375,13.7142857 L6.1625,13.7142857 C6.4546875,13.7142857 6.73625,13.7785714 6.9965625,13.8910714 C7.395,13.4357143 7.851875,13.0339286 8.3459375,12.6910714 L8.3459375,12.6910714 Z" id="Shape"></path>
            </g>
        </g>
    </g>
</svg>